<svg width="19" height="17" viewBox="0 0 19 17" fill="none" xmlns="http://www.w3.org/2000/svg">
<path d="M16.1336 0.208905C16.4754 0.304538 16.8944 0.516393 17.1766 0.88078C17.0501 0.668521 16.8613 0.474703 16.6766 0.335859C17.104 0.571679 17.4046 1.00547 17.573 1.44523C17.4066 0.881067 17.4195 0.958787 17.5496 1.18644C17.6723 1.42805 17.7255 1.77723 17.7303 1.78898C17.744 1.78323 17.7226 1.35596 17.6893 1.26164C17.9299 1.68715 17.8645 2.7692 17.9715 2.13176C17.9573 2.2462 17.983 2.52007 17.9861 2.52922C18.0411 2.49843 18.0152 1.86874 18.0457 1.96867C18.0935 2.08773 18.0413 2.25814 18.032 2.4384C17.9461 3.292 18.171 3.10681 17.907 3.86125C17.9188 3.84843 17.9304 3.83508 17.9422 3.82219C17.6597 4.60353 17.3044 5.26918 16.9266 5.91691C16.8375 6.19841 16.4681 6.87073 16.2547 7.18156C16.214 7.24285 15.9864 7.531 15.9656 7.55168C15.9288 7.58875 16.0819 7.35322 15.9959 7.44816C15.9789 7.46918 15.6209 7.97246 15.6697 7.955C15.7118 7.901 15.8203 7.71461 15.8475 7.68742C16.0365 7.52016 14.9095 9.04327 14.8631 9.12394C14.8963 9.09622 14.9295 9.06777 14.9627 9.03996C14.8875 9.13319 14.8125 9.22616 14.7371 9.31828C14.7589 9.27472 14.7809 9.23105 14.8025 9.18742C14.7163 9.29359 14.6104 9.44413 14.5271 9.53996C14.514 9.55436 14.5252 9.49803 14.4949 9.53605C14.4649 9.57406 14.4977 9.58695 14.4578 9.64543C14.413 9.71125 14.1699 9.98808 14.0926 10.0878C13.805 10.4606 13.5221 10.8457 13.2127 11.203C13.5029 10.8061 13.1707 11.1758 13.0926 11.288C13.0758 11.3126 13.1262 11.3502 12.8055 11.7128C12.5972 11.9474 12.712 11.6736 12.4158 12.0956C12.7164 11.8331 12.4672 12.1243 12.2644 12.3661C12.2274 12.4108 11.9437 12.7287 11.8182 12.8779C11.775 12.9293 11.7329 13.0266 11.6766 13.0927C11.6378 13.138 11.5954 13.1614 11.5389 13.2275C11.2683 13.5436 10.9979 13.8507 10.7195 14.1523C10.8152 13.9267 10.573 14.2647 10.5496 14.2851C10.4677 14.3441 10.7612 14.0069 10.6346 14.1279C10.4621 14.3243 10.3202 14.485 10.1394 14.6874C10.2803 14.5477 10.0219 14.9133 9.92949 14.9755C9.9715 14.9888 9.69938 15.2465 9.43535 15.4892L8.59355 16.37L7.82206 15.4765C7.65672 15.2572 7.51551 15.0626 7.46074 15.0126C7.43492 14.989 7.55997 15.1905 7.21464 14.7538C7.17688 14.7058 7.20673 14.7103 7.18437 14.6864C7.17082 14.6726 7.04199 14.6184 6.99687 14.5077C6.97702 14.463 7.19648 14.6638 6.77714 14.1816C6.88553 14.4179 6.20397 13.5341 6.08281 13.3544C6.10083 13.3907 6.12006 13.4286 6.14042 13.4677C6.0293 13.292 5.99291 13.2813 5.96464 13.2441C5.85433 13.098 5.70669 12.8767 5.60234 12.747C5.47625 12.5902 5.44533 12.6142 5.30937 12.415C5.33762 12.4653 5.36623 12.5163 5.39433 12.5663C5.29215 12.4321 5.19871 12.3066 5.10038 12.1757C5.36864 12.4389 5.05557 12.114 5.033 12.0868C5.00195 12.0495 5.0611 12.091 5.00956 12.0282C5.00407 12.0218 4.99525 12.044 4.91679 11.9452C4.75535 11.7414 4.80116 11.7601 4.73515 11.6737C4.72898 11.6658 4.73604 11.7045 4.61894 11.5566C4.24551 11.0824 4.63176 11.5524 4.64726 11.5683C4.6672 11.5883 4.60442 11.3846 4.88847 11.8007C4.7931 11.662 4.80736 11.6269 4.79667 11.6112C4.78719 11.5979 4.60689 11.3675 4.59355 11.3515C4.49633 11.2408 4.55633 11.3573 4.53593 11.3368C4.51666 11.3166 4.32917 11.0189 4.22636 10.9911C4.17353 10.8171 4.33053 11.0378 4.50761 11.2577C4.54208 11.2829 4.36776 11.0308 4.35527 11.0136C4.11344 10.6885 4.20685 10.898 4.12871 10.8466C4.08754 10.8192 4.01577 10.6641 4.07109 10.8154C3.84867 10.5201 4.00226 10.6848 3.99101 10.663C3.97409 10.6307 3.88993 10.5367 3.88066 10.5214C3.86878 10.5008 3.92882 10.5576 3.87871 10.4794C3.87021 10.4664 3.76027 10.3607 3.86406 10.5253C3.71481 10.3133 3.70917 10.3428 3.69413 10.2441C3.52117 10.1501 3.65845 10.1085 3.62187 10.0487C3.52452 9.89115 3.50159 9.97071 3.49296 9.96672C3.43615 9.9241 3.15577 9.48578 3.07499 9.38469C3.14275 9.39893 3.31067 9.72269 3.36503 9.78312C3.54507 9.9843 3.16694 9.45929 3.32792 9.58293C3.26756 9.52586 3.20745 9.46876 3.14726 9.41105C3.09318 9.26481 3.22772 9.43007 2.9871 9.10539C2.92239 9.07016 3.15301 9.3378 3.0916 9.29484C3.05519 9.26939 2.92111 9.07996 2.91093 9.07902C2.90031 9.08085 3.02825 9.24738 2.99882 9.23039C2.92988 9.18937 2.52227 8.53144 2.86601 9.00871C2.77357 8.87346 2.77845 8.7658 2.68242 8.65812C2.62182 8.58984 2.83503 9.07154 2.41874 8.41203C2.43485 8.38307 2.59732 8.66791 2.60429 8.67375C2.61381 8.68041 2.63649 8.59329 2.63359 8.58293C2.62103 8.54764 2.1556 7.89925 2.09648 7.73723C2.09977 7.81745 1.77155 7.22484 1.72636 7.16789C1.71365 7.15287 1.73034 7.22741 1.71757 7.21086C1.63904 7.10877 1.49411 6.77859 1.41484 6.63469C1.32639 6.47502 1.32128 6.50486 1.3162 6.49601C1.27842 6.42533 1.32127 6.47436 1.29765 6.43156C1.26138 6.36959 1.01945 5.90603 1.00663 5.88273C1.00247 5.8764 1.01967 5.96139 0.965619 5.86418C0.956427 5.84609 0.984816 5.85054 0.824017 5.54387C0.636059 5.17811 0.918176 5.81683 0.820111 5.67473C0.739625 5.41693 0.71076 5.44288 0.683392 5.37687C0.674602 5.35469 0.627836 5.17296 0.545697 4.98039C0.607398 5.11521 0.673382 5.25213 0.736127 5.3759C0.685033 5.25279 0.562809 4.9879 0.526166 4.87687C0.507812 4.82236 0.549204 4.85564 0.503705 4.74113C0.494931 4.71726 0.393069 4.64265 0.542767 4.93644C0.531014 4.96977 0.485306 4.81795 0.4539 4.75383C0.448008 4.74272 0.39858 4.72227 0.386517 4.62004C0.390184 4.59962 0.563855 4.79014 0.286908 4.20695C0.278363 4.18804 0.285838 4.26046 0.277142 4.24211C0.270362 4.22801 0.230117 4.07016 0.222455 4.04777C0.215015 4.02938 0.223059 4.11702 0.213666 4.09465C0.164991 3.97866 0.184802 3.80827 0.244916 4.05363C0.229433 3.96963 0.215939 3.88595 0.204877 3.80363C0.180056 3.89998 0.162501 3.6829 0.142377 3.56633C0.0360313 2.76773 0.0719925 3.30442 0.0408143 3.16887C0.010438 2.93864 0.0787798 3.11445 0.0769471 2.74113C0.077131 2.72399 0.0605188 2.82189 0.0544862 2.82609C0.0583163 2.81662 0.030075 2.77411 0.0837831 2.53898L0.107221 2.45402C0.0908132 2.52954 0.0799176 2.6025 0.0730409 2.66398C0.109219 2.60968 0.189853 2.13635 0.219525 2.10344C0.307657 1.90406 0.343596 1.87096 0.377728 1.8173C0.416966 1.76894 0.460778 1.66501 0.707807 1.4423C0.753114 1.4026 0.86455 1.33409 0.973432 1.26945C1.18936 1.15218 1.04683 1.20122 0.83183 1.33488C0.620865 1.46065 0.40647 1.71762 0.390424 1.73137C0.37983 1.73643 0.59041 1.44661 0.885541 1.27726C1.17657 1.10209 1.4417 1.05209 1.4666 1.04582C1.6263 1.0106 0.978448 1.21306 1.1121 1.19719C1.12802 1.19331 1.27408 1.12432 1.49199 1.07219C1.70596 1.02113 1.92369 0.997901 2.16679 0.996015C2.43801 0.993797 2.68075 1.02671 2.77421 1.04484C3.05457 1.10043 3.15662 1.19215 3.1746 1.13078C3.23559 1.20992 3.31198 1.18802 3.3455 1.19816C3.74552 1.3324 3.74275 1.33821 4.06621 1.47648C4.13614 1.50799 4.18618 1.55388 4.21171 1.5634C4.2266 1.56891 4.20939 1.53718 4.28105 1.5673C4.38701 1.60375 4.91633 1.94976 4.94413 1.98918C4.97665 2.02258 4.72051 1.84872 4.75761 1.89445C4.94667 2.01641 5.12296 2.13491 5.2996 2.27043C5.372 2.32642 5.32792 2.30772 5.35917 2.33195C5.37705 2.34411 5.62658 2.52988 5.61796 2.51848C5.60686 2.47953 4.81011 1.9066 5.03105 2.04191C5.07542 2.06707 5.20217 2.1938 5.19902 2.14934C5.90876 2.67853 6.51307 3.28596 7.06523 3.92277C6.72799 3.57594 6.36316 3.16563 5.97636 2.82023C5.92424 2.7725 5.74465 2.61187 5.75566 2.64445C6.09004 2.93431 6.4835 3.30796 6.75761 3.62004C6.76642 3.63001 6.72248 3.60544 6.75468 3.64348C6.81575 3.7141 7.0343 3.92236 7.0623 3.96476C7.05476 3.96065 6.94047 3.85918 6.96464 3.90422C7.03008 4.02576 7.10342 4.00328 7.17851 4.09172C7.23983 4.16047 7.58935 4.63754 7.69609 4.74406C7.81119 4.85303 7.43403 4.39259 7.47441 4.41594C7.74405 4.71722 7.97521 5.05392 8.19804 5.36027C8.20155 5.36467 8.17919 5.31006 8.23027 5.37785C8.31995 5.49759 8.32272 5.53633 8.36308 5.59953C8.3938 5.64711 8.47901 5.77572 8.53203 5.85734C8.63514 5.64946 8.73505 5.461 8.81913 5.33C8.71604 5.50983 8.62601 5.68916 8.54081 5.87199C8.55146 5.88862 8.56138 5.90181 8.56718 5.91203C8.91128 5.20296 9.30297 4.51933 9.74492 3.86516C9.86144 3.70109 9.82132 3.80448 10.0057 3.53117C9.94839 3.59607 9.89226 3.66001 9.83574 3.72648C9.93181 3.58782 10.3973 2.9903 10.4754 2.89641C10.485 2.88384 10.4797 2.85078 10.6014 2.705C10.7102 2.57614 10.7425 2.56778 10.8055 2.50285C10.8585 2.44833 10.9133 2.38289 10.9295 2.36711C10.9418 2.35527 10.9545 2.35744 10.9842 2.32902C11.0793 2.2382 10.9841 2.29402 11.1004 2.22453C11.0792 2.24797 11.0578 2.27122 11.0369 2.29484C11.1503 2.18402 11.3158 2.04419 11.156 2.21379C11.1289 2.24319 11.1458 2.21203 11.1248 2.23332C10.3347 3.09138 10.9685 2.41046 11.2527 2.11418C11.3345 2.04738 11.7725 1.6472 11.7937 1.64055C11.8167 1.62742 11.7468 1.69965 11.8562 1.62394C11.8721 1.5998 12.5189 1.13297 12.2957 1.3134C12.2473 1.34803 11.9381 1.57155 11.8689 1.63176C12.0521 1.51726 12.4427 1.19419 12.4969 1.16691C12.6951 1.04741 12.1373 1.42792 12.5789 1.15226C12.9251 0.951605 12.5905 1.1239 12.7195 1.03898C12.7907 0.986822 13.2089 0.806177 13.1893 0.788007C13.3319 0.722529 13.2555 0.772456 13.2723 0.766523C13.2891 0.758084 13.5761 0.636935 13.6756 0.614179C13.6869 0.611415 13.6554 0.636473 13.6678 0.63371C13.6917 0.625465 13.9741 0.541995 13.99 0.538984C13.9973 0.53619 13.9252 0.541483 13.9529 0.531171C13.985 0.516766 14.2678 0.459407 14.285 0.454999C14.3059 0.442511 13.9551 0.520678 14.0105 0.495038C14.1725 0.457613 14.4368 0.404727 14.5457 0.382734C14.519 0.388326 14.3584 0.410809 14.3035 0.419843C14.3221 0.394787 14.5968 0.35855 14.5779 0.371991C14.6171 0.360931 14.5836 0.362356 14.6199 0.351484C14.6332 0.347891 14.7365 0.339365 14.7576 0.334882C14.7505 0.333887 14.651 0.333566 14.6717 0.328046C14.7115 0.314131 15.0382 0.30432 15.0662 0.309491C15.1418 0.314672 14.876 0.322328 14.8523 0.333905C14.8607 0.334698 15.075 0.347631 15.0799 0.350507C15.0927 0.365017 14.8421 0.357333 14.8709 0.371991C14.9328 0.372629 14.9951 0.374624 15.0574 0.377851C14.8179 0.385482 14.3806 0.430295 14.2742 0.471601C14.6177 0.401099 14.9873 0.397556 14.9871 0.435468C14.9869 0.450629 14.8383 0.46533 14.8445 0.469648C14.8681 0.481264 15.0711 0.462054 15.0818 0.463788C15.0882 0.464702 15.0916 0.465891 15.0916 0.466718C15.0861 0.472787 14.7957 0.485837 14.782 0.493085C14.7582 0.501221 14.8895 0.522541 14.8894 0.529218C14.8837 0.529554 14.6805 0.549459 14.7498 0.555585C14.8189 0.560103 14.9945 0.555002 15.0066 0.556562C15.0406 0.560329 14.7274 0.5803 14.7195 0.587812C14.7259 0.589369 14.8825 0.590736 14.8875 0.594648C14.8817 0.598352 14.7638 0.612669 14.7176 0.627851C14.6818 0.639026 14.7877 0.635764 14.7703 0.638593C14.7579 0.637777 14.465 0.671568 14.4519 0.677655C14.4318 0.682898 14.4999 0.68254 14.491 0.686444C14.4775 0.691682 14.3846 0.703235 14.3973 0.704999C14.4118 0.7023 14.7718 0.692123 14.7684 0.704999C14.7597 0.717952 14.3869 0.725025 14.742 0.747968C14.7443 0.747941 14.8236 0.73746 14.8309 0.737226C14.8838 0.745334 14.6139 0.778387 14.9461 0.756757C14.3313 0.820931 14.8707 0.782456 14.781 0.815351C14.7467 0.82607 14.5134 0.858836 14.5115 0.862226C14.536 0.871186 14.6101 0.851097 14.6365 0.854413C14.6455 0.855914 14.4441 0.899304 14.492 0.901288C14.5176 0.900063 14.7383 0.871335 14.7469 0.872968C14.8337 0.873524 14.7297 0.891127 14.7478 0.895429C14.7606 0.897571 14.8936 0.888525 14.8973 0.889569C14.8957 0.890893 14.7255 0.918773 14.6883 0.929609C14.6604 0.936835 14.7666 0.932443 14.7469 0.936444C14.6284 0.957466 14.375 0.969553 14.6219 0.973554C14.6366 0.973739 14.7257 0.962735 14.7312 0.962812C14.7888 0.96805 14.62 0.986436 14.5916 1.0009C14.543 1.02334 14.7809 0.982888 14.5838 1.02043C14.735 1.01028 14.8158 1.00129 14.992 0.991132C14.5071 1.02974 14.3487 1.10666 14.8768 1.04582C14.7086 1.05813 14.7296 1.08197 14.6795 1.08781C14.6479 1.0899 14.4039 1.1074 14.5223 1.14055C14.5387 1.14337 14.6794 1.11454 14.6375 1.13371C14.2896 1.1862 14.6308 1.14218 14.6316 1.14543C14.6274 1.1546 13.7927 1.34032 13.6629 1.42766C13.5058 1.49889 13.3815 1.59355 13.3484 1.61125C13.2398 1.66966 13.3232 1.60919 13.2967 1.61809C13.2661 1.62598 12.9805 1.82633 12.9646 1.83879C12.9096 1.86892 12.946 1.82896 12.948 1.82414C12.8685 1.85834 12.4892 2.15332 12.3865 2.24211C12.3973 2.24494 12.6056 2.07786 12.4852 2.19621C12.349 2.33276 12.3111 2.31099 12.3045 2.31144C11.6212 2.90819 11.045 3.64585 10.5467 4.43156C10.573 4.43217 10.8933 3.91725 10.907 3.91008C10.9605 3.85421 10.399 4.70682 10.3357 4.81633C10.3886 4.73793 10.4425 4.65898 10.4978 4.58C10.4359 4.73606 10.2209 5.02554 10.1189 5.24211C10.0865 5.31071 10.166 5.18945 10.1668 5.19035C10.1349 5.27251 10.0621 5.3886 10.0965 5.29094C10.0122 5.48033 10.0093 5.44915 9.93437 5.59074C9.93232 5.59568 9.97219 5.54513 9.9207 5.65715C9.89448 5.71216 9.75573 5.99389 9.74589 6.04191C9.74241 6.0599 9.8576 5.93464 9.82792 5.89933C9.99977 5.59841 9.86075 5.79003 9.92167 5.67082C9.93196 5.65254 9.92691 5.70682 10.076 5.40031C10.0805 5.478 9.87719 5.80753 9.85234 5.87199C9.80035 5.99964 10.0715 5.50478 10.0955 5.39641C10.1019 5.45338 10.1175 5.36349 10.1795 5.25285C10.248 5.13124 10.2276 5.18837 10.2635 5.12394C10.3632 4.94748 10.3024 5.00904 10.4051 4.87297C10.2675 4.98168 10.5439 4.61932 10.6287 4.51848C10.5179 4.70154 10.4114 4.88698 10.3084 5.07609C10.3172 5.0673 10.326 5.05853 10.3348 5.04973C10.3066 5.09847 10.2796 5.14589 10.2518 5.19523C10.2533 5.18578 10.2552 5.176 10.2566 5.16691C10.1325 5.43544 10.0828 5.4842 10.0701 5.50676C9.92694 5.77392 9.7709 6.09666 9.64433 6.37883C9.62649 6.42 9.65522 6.40172 9.50761 6.70305C9.45989 6.80217 9.48318 6.70227 9.43925 6.81437C9.42371 6.97379 9.39089 6.95818 9.3748 6.99797C9.32527 7.12221 9.31113 7.19352 9.30546 7.20891C9.2833 7.26991 9.24964 7.35956 9.22831 7.42277L8.79472 8.69816L8.09062 7.52922C8.04227 7.45079 7.96998 7.33849 7.91874 7.26262C7.91807 7.26275 7.95308 7.34258 7.89531 7.24699C7.87413 7.21154 7.72626 6.87487 7.52226 6.62687C7.56554 6.69458 7.61191 6.76851 7.65507 6.83781C7.60481 6.74946 7.1896 6.21112 7.27324 6.35441C7.32814 6.44467 7.50704 6.62122 7.49101 6.66691C7.37636 6.46751 6.58682 5.4957 6.52324 5.42277C6.51719 5.41314 6.57971 5.46613 6.56913 5.45109C6.56003 5.4375 6.37295 5.22567 6.35038 5.19328C6.33886 5.1754 6.42783 5.26466 6.4246 5.25383C6.4191 5.24098 6.19293 4.97875 6.16288 4.9716C6.22832 5.03251 6.3844 5.21792 6.28886 5.13176C6.27658 5.12049 6.228 5.04956 6.21269 5.03605C6.07242 4.91092 6.4482 5.32171 6.50273 5.38957C6.25881 5.13526 5.91285 4.7204 5.61503 4.45109C5.50973 4.3276 5.80119 4.60466 5.67949 4.46769C5.43542 4.19665 5.57979 4.39257 5.58378 4.40324C5.50687 4.34716 5.32539 4.07304 5.28398 4.11711C5.18837 4.01942 5.22638 4.04248 5.07597 3.92277C5.09232 3.94223 5.10856 3.96179 5.1248 3.98137C4.94378 3.86563 4.65086 3.52714 4.67656 3.53898C4.76024 3.57855 4.92551 3.7469 4.94121 3.75969C4.96451 3.77824 5.06986 3.78198 5.27812 4.03996C5.40734 4.09776 4.90502 3.67924 5.14824 3.85246C4.99815 3.71531 4.36107 3.20141 4.2498 3.16496C4.23743 3.16096 4.2678 3.22652 4.11308 3.10539C4.03885 3.0478 4.23121 3.16596 4.19999 3.13566C4.1525 3.08883 3.74235 2.82104 3.28886 2.65519C2.83623 2.47828 2.36149 2.45138 2.2166 2.46086C2.19792 2.46127 2.20375 2.44811 2.18632 2.44816H2.18535C2.11307 2.44818 1.9257 2.48871 1.85429 2.5048C2.02299 2.489 1.70213 2.57124 1.69706 2.5966C1.64752 2.62837 1.64168 2.60688 1.62187 2.62101C1.54783 2.64276 1.5641 2.97971 1.55449 3.1884C1.60251 3.16851 1.59663 3.55086 1.66581 3.74406C1.70947 3.87994 1.82641 4.07869 1.77519 3.87785C1.86526 4.13238 1.98408 4.37319 2.10136 4.60832C2.11935 4.64427 2.07956 4.60149 2.11113 4.66301C2.11422 4.66867 2.13323 4.66984 2.16191 4.72355C2.40864 5.17514 2.26561 4.97066 2.30058 5.06144C2.32103 5.11227 2.33731 5.14667 2.35038 5.17277C2.20054 4.90607 2.04627 4.60509 2.00663 4.51945C2.00165 4.60429 2.31085 5.11662 2.38554 5.26457C2.3881 5.26997 2.36029 5.26213 2.36308 5.2675C2.39082 5.32405 2.60734 5.68706 2.58574 5.59953C2.57896 5.57486 2.47996 5.40497 2.37187 5.21183C2.40435 5.26148 2.40321 5.213 2.40898 5.22062C2.47885 5.32589 2.62533 5.6263 2.67851 5.72062C2.69097 5.74296 2.7025 5.73487 2.70488 5.7382C2.75486 5.82857 2.69682 5.81326 2.78984 5.88273C2.84117 6.07113 2.60191 5.58494 2.59355 5.63566C2.5782 5.67624 3.22691 6.69158 3.27128 6.67082C3.26994 6.67701 3.27525 6.69421 3.28886 6.72648C3.31788 6.79742 3.50915 7.07628 3.5496 7.12101C3.55686 7.12776 3.58929 7.10233 3.59648 7.11223C3.61643 7.14123 3.82335 7.49902 3.93339 7.61125C3.88988 7.53923 3.84624 7.46717 3.80351 7.39543C4.09344 7.80935 4.06135 7.73803 3.97343 7.59269C3.9687 7.58576 3.96521 7.57786 3.96074 7.57121C3.89289 7.45898 3.80508 7.31728 3.80644 7.3134C3.81456 7.30686 4.31265 7.99613 4.18535 7.88371C4.16454 7.864 3.9511 7.5344 4.04179 7.70988C4.05764 7.74102 4.21434 7.94578 4.21953 7.95793C4.25369 8.04171 3.90639 7.60281 3.92265 7.67473C4.02357 7.77006 4.11425 7.92151 4.21074 8.04289C4.25451 8.09786 4.28231 8.0996 4.28788 8.10637C4.36923 8.20885 4.30765 8.16319 4.33378 8.19816C4.34926 8.21839 4.53875 8.39724 4.45683 8.39641C5.00352 9.05048 4.63387 8.55767 4.32402 8.13859C4.43996 8.25778 4.62322 8.52503 4.71464 8.63762C4.74728 8.67776 4.74646 8.64067 4.80253 8.70793C4.9169 8.84768 5.42323 9.5484 5.55937 9.72941C5.46711 9.62462 5.4723 9.67123 5.53984 9.7548C5.60712 9.83781 5.57843 9.74864 5.59355 9.76164C5.61092 9.77849 5.90714 10.1778 5.96464 10.2421C5.71996 9.95457 5.75221 10.0355 5.95097 10.289C5.91621 10.257 5.88055 10.2236 5.84648 10.1923C5.97264 10.3351 6.19128 10.6665 6.26738 10.7421C6.27934 10.754 6.25803 10.6951 6.26445 10.7011C6.3301 10.7681 6.52253 11.038 6.53691 11.0439C6.54968 11.0499 6.47598 10.9314 6.51542 10.9657C6.52369 10.9729 6.58575 11.0949 6.67363 11.1904C6.70616 11.2257 6.70409 11.1906 6.71269 11.1991C6.78392 11.2702 6.71942 11.246 6.84453 11.3886C6.93632 11.4929 7.02883 11.551 7.13945 11.7001C6.77816 11.2012 7.09387 11.6083 7.27324 11.8007C7.30181 11.8311 7.30919 11.7823 7.45585 11.9833C7.06015 11.6195 7.52489 12.122 7.61308 12.2255C7.61801 12.2316 7.60105 12.25 7.64628 12.3036C7.65012 12.3079 7.6582 12.2908 7.70097 12.3388C8.09992 12.7849 7.83534 12.507 7.89628 12.6034C7.92091 12.6429 8.13898 12.8588 8.1873 12.913C8.19883 12.9262 8.18092 12.9313 8.22538 12.9814C8.30678 13.0729 8.40074 13.1527 8.4539 13.2109C8.4597 13.2174 8.44122 13.2381 8.54472 13.3417C8.57619 13.3736 8.61894 13.4079 8.58085 13.3525C8.47244 13.1903 8.17487 12.9183 8.04374 12.7265C7.92565 12.5543 8.35462 13.0443 8.38749 13.081C8.39466 13.0894 8.29701 12.9992 8.38456 13.1034C8.4413 13.1709 8.54652 13.2502 8.64238 13.3446C8.72699 13.2882 8.82163 13.2251 8.8621 13.1737C8.92716 13.092 8.87251 13.0865 8.87675 13.078C8.88425 13.065 8.9732 12.9668 8.99882 12.9267C9.02833 12.8801 8.99728 12.889 9.04863 12.8173C9.16117 12.6565 9.19536 12.6879 9.21074 12.6747C9.39564 12.5091 9.27606 12.5467 9.30742 12.5009C9.34468 12.45 9.81434 11.9246 9.89335 11.7997C9.86237 11.8526 9.83283 11.9028 9.80058 11.957C9.89196 11.8923 9.9263 11.7744 9.96855 11.8066C9.91666 11.735 10.1018 11.5976 10.1443 11.5419C10.1608 11.5202 10.1487 11.5122 10.1697 11.4853C10.2531 11.3786 10.4393 11.1646 10.4793 11.1025C10.6435 10.8454 10.1214 11.4129 10.075 11.4638C10.1577 11.3645 10.5708 10.8153 10.3406 11.037C10.3048 11.0717 10.2804 11.1651 10.2644 11.1874C10.1564 11.3381 10.2204 11.2026 10.2088 11.2118C10.1887 11.2289 10.14 11.3416 10.115 11.3661C10.1073 11.3734 10.1278 11.2995 10.0125 11.4413C10.0511 11.3462 10.3752 10.9795 10.4139 10.9189C10.4248 10.9 10.2869 10.9709 10.6014 10.6747C10.5939 10.6747 10.5864 10.6747 10.5789 10.6747C10.7222 10.4885 10.8708 10.2928 11.0144 10.1025C11.0099 10.1317 10.9514 10.2547 11.0486 10.1191C11.1047 10.0406 11.0363 10.0767 11.0408 10.0693C11.0887 9.9994 12.0301 8.7673 12.1961 8.52238C12.255 8.43936 12.3992 8.1934 12.4109 8.1757C12.484 8.06941 12.7584 7.70684 12.8064 7.6298C12.8367 7.58175 12.7844 7.6102 12.8143 7.56926C12.8418 7.53168 12.8357 7.58693 12.8445 7.57609C12.9208 7.48659 13.3791 6.74031 13.5096 6.58C13.4368 6.68182 13.1301 7.24105 13.1521 7.24016C13.1606 7.23379 13.2583 7.1229 13.2674 7.09172C13.3156 7.06176 13.3577 6.8697 13.4227 6.79582C13.43 6.78746 13.4394 6.84618 13.5408 6.70402C13.5759 6.65469 13.6348 6.50758 13.7488 6.39348C13.8665 6.18957 14.519 5.19543 14.5125 5.10148C14.5086 5.10304 14.4173 5.2365 14.4568 5.1298C14.5096 4.98563 14.5135 5.14402 14.6043 4.99406C14.6219 4.96738 14.832 4.55468 14.8367 4.53117C14.8619 4.38216 14.6582 4.73653 14.6531 4.73234C14.6485 4.71437 14.7967 4.40913 14.8074 4.3925C14.8166 4.38183 14.7437 4.66325 14.8758 4.34855C14.8522 4.37975 14.8276 4.41081 14.8035 4.4423C14.8626 4.29299 14.9054 4.29963 14.9246 4.26652C14.9842 4.16248 14.9768 4.03028 15.1277 3.88762C15.1672 3.85099 15.1546 3.93583 15.16 3.93156C15.2105 3.88824 15.1718 3.7872 15.2576 3.73039C15.2632 3.72697 15.2185 3.92488 15.3523 3.60148C15.3384 3.62131 15.3245 3.642 15.3103 3.66203C15.3181 3.61634 15.4412 3.27263 15.4549 3.2343C15.5051 3.11245 15.5069 3.23354 15.5428 3.10832C15.4674 3.17359 15.5755 2.78408 15.6102 2.82316C15.5686 2.75951 15.6764 2.45958 15.6805 2.35539C15.6895 2.27275 15.6593 2.15784 15.659 2.14641C15.6607 2.12985 15.7016 2.12873 15.7059 2.09758C15.7079 2.08303 15.6591 2.02479 15.6951 2.01848C15.7027 2.01668 15.7593 1.97934 15.7771 1.9716C15.8085 1.95817 15.7789 2.03259 15.8172 2.02531C15.8585 2.00617 15.8075 1.94777 15.8074 1.94816C15.8067 1.91334 15.8499 1.88793 15.8631 1.88078C15.8881 1.85577 15.8447 1.82395 15.8406 1.81926C15.8389 1.80162 15.8918 1.80276 15.906 1.78801C15.9281 1.76826 15.8881 1.68452 15.907 1.68547C15.9431 1.68982 15.9708 1.76191 15.9734 1.76652C16.0291 1.78558 16.0288 1.69083 16.0193 1.64543C16.019 1.63277 16.0564 1.6423 16.0525 1.63566C15.9854 1.53205 15.9815 1.69238 15.9256 1.64641C15.871 1.60793 15.9601 1.61278 15.9676 1.61125C15.9685 1.60725 15.8881 1.56113 15.8748 1.54094C15.8833 1.52664 16.1272 1.58242 16.1424 1.56047C16.074 1.51058 16.0065 1.47862 15.908 1.44523C15.923 1.39748 16.0328 1.49051 16.0408 1.49309C16.0682 1.4982 16.0192 1.44077 16.0271 1.42863C16.0333 1.42025 16.132 1.4398 16.0652 1.38371C16.0423 1.36542 15.9625 1.35767 15.8641 1.28898C16.2714 1.41518 16.0208 1.27762 16.0096 1.25187C16.0027 1.22999 16.2304 1.28961 15.9705 1.18156C15.9929 1.09103 15.988 1.15436 16.0701 1.17375C16.1631 1.20228 15.9944 1.06059 16.2752 1.26262C16.2963 1.21259 16.0262 1.07165 16.0057 1.06926C15.9945 1.06107 16.0663 1.06668 16.0457 1.0507C15.8072 0.876034 15.9771 0.978001 15.9129 0.900312C15.9117 0.890951 15.616 0.802785 15.8455 0.847577C16.2405 0.936645 16.3512 1.12312 16.4832 1.05559C16.2597 0.796533 15.8353 0.781371 15.741 0.767499C15.5873 0.741195 15.7501 0.743872 15.7342 0.733319C15.7264 0.728485 15.5973 0.709126 15.5994 0.707929C15.5608 0.652542 15.704 0.665322 15.8875 0.722577C16.0591 0.774093 16.2588 0.88491 16.3533 0.935468C16.3123 0.893251 16.2663 0.852605 16.2166 0.813398C16.2929 0.84757 16.3645 0.886527 16.4305 0.929609C16.1129 0.712133 16.4289 0.902154 16.5516 0.901288C16.5795 0.899459 16.3465 0.766912 16.6238 0.910077C16.4456 0.761366 16.5162 0.789597 16.3191 0.708905C16.3426 0.670454 16.7793 0.896291 16.91 1.07316C16.6887 0.782035 16.5848 0.777331 16.532 0.754804C16.4702 0.739614 16.4285 0.709259 16.1697 0.572187C16.0617 0.573746 16.3096 0.66288 16.2898 0.66496C16.1962 0.648213 16.0596 0.550816 15.8269 0.585859C15.7911 0.593001 15.9246 0.663127 15.7127 0.619062C15.6819 0.612621 15.5744 0.560339 15.573 0.557538C15.5932 0.530608 15.7117 0.559752 15.7254 0.550702C15.727 0.538761 15.5894 0.523804 15.5896 0.521405C15.5913 0.485568 15.702 0.524256 15.6893 0.51164C15.6671 0.48294 15.1395 0.327539 15.8357 0.458905C15.2492 0.406848 15.7401 0.464164 15.9861 0.520429C16.0446 0.533293 16.0661 0.517092 16.1482 0.538007C16.2465 0.561235 16.3897 0.63986 16.4412 0.665937C16.4994 0.699581 16.1984 0.448296 16.6609 0.762616C16.5671 0.657938 16.3803 0.551218 16.199 0.488202C16.0317 0.427786 15.8486 0.390368 15.7137 0.350507C15.4842 0.280921 15.568 0.27011 15.7234 0.280194C15.91 0.29396 16.1552 0.362974 16.2 0.377851C16.2247 0.384539 16.1538 0.329347 16.1697 0.332929C16.184 0.314968 16.7267 0.596927 16.7693 0.631757C16.8318 0.646047 16.5917 0.505966 16.5848 0.479413C16.5882 0.424559 17.207 0.919786 16.8894 0.623944C16.6737 0.409056 16.1716 0.286647 16.1336 0.208905ZM9.20097 14.2177L9.22831 14.2187C9.22531 14.2098 9.23302 14.21 9.24003 14.2089L9.19706 14.2079C9.19857 14.2108 9.19899 14.2144 9.20097 14.2177ZM8.04863 14.2099H8.08183C8.08432 14.2071 8.08701 14.2033 8.09062 14.1991H8.05937C8.05091 14.2074 8.04869 14.2111 8.04863 14.2099ZM9.17753 14.1611C9.18228 14.1709 9.18451 14.1798 9.19023 14.1952L9.25371 14.1962C9.25174 14.2 9.23311 14.1846 9.22636 14.1767C9.22193 14.1711 9.21901 14.1655 9.2166 14.1611H9.17753ZM8.08769 14.1718C8.08161 14.1782 8.07555 14.1828 8.07109 14.1874H8.10136C8.10994 14.1776 8.12017 14.1656 8.13163 14.1523H8.10527C8.09797 14.16 8.09271 14.1667 8.08769 14.1718ZM8.02421 14.1874H8.04277C8.0473 14.1773 8.05377 14.1631 8.06035 14.1513H8.04765C8.03484 14.1679 8.01795 14.1895 8.02421 14.1874ZM10.9832 13.8339C10.9741 13.8219 10.7977 14.0045 10.8016 14.038C10.832 14.0025 10.9854 13.8449 10.9832 13.8339ZM8.01738 12.83C7.98877 12.8269 8.14134 12.9932 8.14335 12.998C8.14728 13.007 8.1281 13.0674 8.13945 13.0839C8.15611 13.1071 8.34225 13.3257 8.47831 13.4882C8.48535 13.4805 8.49169 13.4742 8.49589 13.4696C8.50959 13.4679 8.50339 13.4798 8.48808 13.4999C8.49774 13.5115 8.50645 13.5233 8.51542 13.5341C8.52263 13.5219 8.5279 13.5105 8.53105 13.4989C8.5081 13.4671 8.49337 13.4567 8.48124 13.453C8.45819 13.4729 8.45725 13.4664 8.4666 13.4472C8.46297 13.4467 8.46005 13.4478 8.45781 13.4452C8.42618 13.4078 8.37389 13.3142 8.30937 13.246C8.37241 13.3067 8.42508 13.355 8.4871 13.414C8.48909 13.4112 8.49179 13.4089 8.49394 13.4062C8.36695 13.2461 8.03777 12.837 8.01738 12.83ZM8.50566 13.4316C8.51376 13.4393 8.52254 13.4468 8.53105 13.455C8.52769 13.4478 8.52254 13.4406 8.51542 13.4345V13.4335C8.51364 13.4313 8.5115 13.4291 8.50956 13.4267C8.5082 13.4282 8.50714 13.43 8.50566 13.4316ZM8.9871 12.7509C8.99545 12.744 9.13582 12.5355 9.10917 12.6425L9.08476 12.6816C9.04608 12.733 8.97298 12.8116 8.94511 12.8378C8.93947 12.8428 8.93275 12.795 8.87871 12.8632C8.83688 12.9164 8.92969 12.8637 8.83964 12.9609C8.75009 13.0573 8.84433 12.9058 8.83574 12.913C8.82259 12.9249 8.70548 13.0881 8.69413 13.0683C8.68547 13.0545 8.83077 12.8993 8.86601 12.8525C8.90928 12.7944 8.83293 12.8443 8.91581 12.7548C8.96871 12.6976 8.97505 12.7613 8.9871 12.7509ZM9.45683 12.5029C9.42423 12.5302 9.25422 12.7574 9.32499 12.6952C9.38624 12.6418 9.5077 12.4614 9.45683 12.5029ZM9.47148 12.4042C9.4546 12.4223 9.19203 12.7162 9.26445 12.6708C9.29203 12.6525 9.74424 12.1189 9.47148 12.4042ZM7.92265 12.5566C7.86991 12.4599 8.10404 12.738 8.00663 12.6562C8.00217 12.6522 7.92796 12.5641 7.92265 12.5566ZM7.66191 12.3925C7.68501 12.4515 7.79145 12.5734 7.77617 12.5234C7.77486 12.5189 7.68978 12.4016 7.66191 12.3925ZM9.59843 12.4999C9.59893 12.5206 9.64028 12.4608 9.67753 12.4257V12.4267C9.71961 12.3872 9.82724 12.2734 9.87968 12.1718C9.78332 12.2847 9.68951 12.3943 9.59843 12.4999ZM9.66191 11.9628C9.64157 12.0287 9.50685 12.1634 9.44218 12.2353C9.46388 12.1759 9.59806 12.0277 9.66191 11.9628ZM7.45878 12.1152C7.43862 12.073 7.33656 11.9906 7.37187 12.0605C7.39819 12.0959 7.45749 12.1184 7.45878 12.1152ZM9.99882 11.996C10.142 11.9055 10.0413 11.9222 9.93828 12.0204C9.92924 12.0687 9.97545 12.0108 9.99882 11.996ZM7.14335 11.8329C7.15228 11.8461 7.3104 12.045 7.31913 12.0341C7.28481 11.9776 7.06315 11.7093 7.14335 11.8329ZM9.89726 11.8769C9.87461 11.8947 9.78435 12.0163 9.79472 12.0243C9.82025 12.028 9.93372 11.8489 9.89726 11.8769ZM9.77128 11.7284C9.74185 11.779 9.76667 11.8023 9.7205 11.8525C9.57252 12.014 9.66786 11.8722 9.77128 11.7284ZM10.1102 11.915C10.2443 11.8154 10.2109 11.7378 10.1326 11.8329C10.1021 11.8699 10.0911 11.9289 10.1102 11.915ZM7.0291 11.6152C7.05949 11.683 7.20779 11.8212 7.18046 11.7763C7.15865 11.7421 6.99937 11.5484 7.0291 11.6152ZM9.98027 11.4589C10.0417 11.4224 9.90729 11.5724 9.90605 11.5761C9.90557 11.5841 10.0467 11.5441 9.81523 11.7392C9.78148 11.7676 9.86137 11.6348 9.85136 11.6415C9.82609 11.6631 9.8072 11.6815 9.79374 11.6972C9.87599 11.5848 9.96714 11.4668 9.98027 11.4589ZM10.2889 11.5702C10.3059 11.5208 10.1427 11.7061 10.1355 11.7187C10.0912 11.7963 10.2545 11.6676 10.2889 11.5702ZM6.93046 11.5204C6.81859 11.427 7.01165 11.6492 7.07695 11.7255C7.09282 11.7208 6.93863 11.5276 6.93046 11.5204ZM10.0496 11.4941C10.0664 11.4985 9.91974 11.7026 9.87968 11.6904C9.91498 11.6515 10.0378 11.493 10.0496 11.4941ZM10.6209 11.2489C10.5966 11.2632 10.4472 11.4893 10.4383 11.497C10.4244 11.5095 10.4533 11.4243 10.3689 11.538C10.3827 11.5377 10.3524 11.6215 10.3641 11.6132C10.4028 11.5815 10.6868 11.2128 10.6209 11.2489ZM10.3982 11.4316C10.4035 11.4214 10.3206 11.4562 10.3016 11.5068C10.2875 11.5452 10.3741 11.4721 10.3982 11.4316ZM6.41484 10.788C6.48876 10.838 6.79403 11.238 6.73124 11.1972C6.68137 11.1654 6.45557 10.8667 6.41484 10.788ZM10.7244 10.5595C10.7021 10.5532 10.5312 10.8028 10.4773 10.8554C10.4735 10.9221 10.6096 10.6951 10.6463 10.663L10.6365 10.7353C10.6384 10.7548 10.6591 10.7365 10.74 10.582C10.6205 10.7179 10.7288 10.5661 10.7244 10.5595ZM10.7684 10.5126C10.8601 10.3909 10.7463 10.4409 10.7068 10.5302C10.7049 10.5356 10.7617 10.5206 10.7684 10.5126ZM6.03496 10.2685C6.06895 10.3164 6.18053 10.4407 6.16191 10.4423C6.10205 10.3736 6.03686 10.3064 6.03496 10.2685ZM5.90898 10.33C5.87643 10.2794 5.88139 10.2532 5.86015 10.2343C5.85277 10.2285 5.8366 10.2381 5.81328 10.2167C5.84442 10.2535 5.87713 10.2925 5.90898 10.33ZM14.493 9.63859C14.4708 9.71695 14.2345 9.96308 14.2615 9.90812C14.2697 9.89377 14.4968 9.60724 14.493 9.63859ZM5.41581 9.60539C5.35451 9.50953 5.21478 9.35166 5.26249 9.43937C5.27293 9.45858 5.40291 9.6054 5.41581 9.60539ZM11.5613 9.43742C11.497 9.49236 11.4241 9.62454 11.4676 9.58781C11.4785 9.57782 11.5753 9.44221 11.5613 9.43742ZM3.02226 9.14445C3.10769 9.26253 3.25597 9.34512 3.14335 9.20305C3.13091 9.18787 3.02202 9.12558 3.02226 9.14445ZM5.13945 9.26359C5.10617 9.20988 4.97449 9.04664 5.02031 9.12785C5.04011 9.16294 5.12048 9.26034 5.13945 9.26359ZM12.4998 8.13371C12.463 8.20224 12.1939 8.54634 12.2019 8.55949C12.2127 8.57303 12.4986 8.17368 12.4998 8.13371ZM2.22538 7.98234C2.23234 7.99783 2.1927 8.01608 2.19804 8.03312C2.20063 8.04168 2.36328 8.26395 2.37968 8.29582C2.38427 8.30502 2.38718 8.31289 2.38945 8.31828C2.37824 8.27624 2.51267 8.48283 2.49589 8.48527C2.48763 8.48349 2.40171 8.34636 2.39628 8.33586C2.39527 8.33352 2.39412 8.33098 2.39335 8.32902C2.3969 8.3664 2.08531 7.87999 2.13261 7.99894C2.03139 7.86441 2.17551 7.99832 2.09746 7.89933C2.07095 7.86554 2.00526 7.85837 1.90898 7.65422V7.65324C1.88145 7.59458 1.9291 7.64966 1.92753 7.63859C1.92725 7.63486 1.8388 7.44196 1.93339 7.58781C2.07506 7.80456 1.91469 7.6295 1.9871 7.74699C1.99806 7.7643 2.15637 7.966 2.15507 7.95207C2.15478 7.95035 2.10816 7.88635 2.10331 7.87394C2.08504 7.82746 2.1099 7.83894 2.10722 7.83293C2.09639 7.81338 1.85548 7.47624 1.84257 7.4091C1.83876 7.39161 2.21034 7.9548 2.22538 7.98234ZM2.35331 8.08879C2.39635 8.20819 2.50862 8.3757 2.51249 8.3134C2.38654 8.12525 2.50116 8.357 2.35331 8.08879ZM4.21367 7.92277C4.15563 7.80604 4.41166 8.16967 4.3123 8.0634C4.30735 8.05813 4.21747 7.9299 4.21367 7.92277ZM1.99101 7.43058C1.91083 7.33309 2.04661 7.59262 2.08476 7.62785C2.1026 7.64349 2.0263 7.47395 1.99101 7.43058ZM8.13749 7.45109C8.09171 7.37038 8.08342 7.39239 8.08671 7.39933C8.11736 7.45845 8.18859 7.54283 8.13749 7.45109ZM1.10722 6.17668C1.11407 6.18737 1.19098 6.36471 1.23613 6.44328C1.37159 6.67867 1.35996 6.60751 1.36796 6.62101C1.377 6.63598 1.44817 6.79535 1.49687 6.87785C1.62015 7.08635 1.68215 7.16391 1.83476 7.45207C1.72451 7.30094 1.74754 7.40607 1.65019 7.22355C1.66282 7.23596 1.6756 7.24826 1.68828 7.26066C1.53048 7.0185 1.37081 6.69829 1.21074 6.40422C1.16848 6.32661 1.19346 6.42974 1.14433 6.32316C1.10491 6.23738 1.07872 6.13474 1.10722 6.17668ZM3.59843 7.0341C3.61987 7.04457 3.78578 7.26137 3.77714 7.28312C3.76507 7.31429 3.6247 7.07764 3.59843 7.0341ZM7.82988 7.15617C7.47802 6.6623 7.47735 6.57041 7.77421 7.03605C7.77802 7.04215 7.85609 7.18535 7.82988 7.15617ZM13.2674 7.09172C13.2594 7.09672 13.2515 7.09775 13.243 7.09269C13.2644 7.07999 13.2703 7.08166 13.2674 7.09172ZM6.75956 5.62199C6.79006 5.6574 6.77336 5.61198 6.80644 5.65226C6.91625 5.7866 7.0008 5.91203 7.09941 6.03898C7.10826 6.05034 7.04896 5.95564 7.12382 6.05266C7.13405 6.06593 7.19528 6.17159 7.28398 6.28605C7.52039 6.52149 7.62081 6.74255 7.86894 7.07902C7.86028 7.05671 7.70157 6.80285 7.68925 6.78508C7.49719 6.49199 7.12474 5.99273 6.89433 5.70988C6.83546 5.63685 6.85555 5.67835 6.82988 5.64738C6.80952 5.6229 6.84805 5.63851 6.77617 5.56242C6.74186 5.52615 6.82187 5.65668 6.79765 5.63371C6.7818 5.61819 6.71667 5.52653 6.68828 5.50285C6.68218 5.49944 6.73858 5.59757 6.75956 5.62199ZM3.15703 6.47551C2.98642 6.16672 3.92448 7.60004 3.33867 6.79777C3.3719 6.83147 3.40569 6.86559 3.43925 6.89933C3.37584 6.79183 3.28869 6.66513 3.27324 6.66789C3.27358 6.66432 3.27177 6.65793 3.26835 6.64836C3.26452 6.63818 3.18465 6.52775 3.15703 6.47551ZM8.05156 6.99016C8.05 6.99428 8.04921 6.9987 8.04765 7.00285L8.05742 7.0009C8.05901 6.99678 8.0617 6.99316 8.06328 6.98918L8.05156 6.99016ZM9.1541 6.88664C9.15636 6.89061 9.15873 6.89446 9.16093 6.89836L9.17265 6.89738C9.17023 6.89322 9.16727 6.88886 9.16484 6.88469L9.1541 6.88664ZM7.18632 6.17766C7.17298 6.1793 7.30022 6.33591 7.32206 6.3466C7.2957 6.31045 7.19239 6.17959 7.18632 6.17766ZM9.67265 6.13371C9.68014 6.096 9.59754 6.26848 9.5789 6.32219C9.58159 6.34257 9.6724 6.13647 9.67265 6.13371ZM9.64042 6.28215C9.64135 6.29634 9.73392 6.10585 9.72929 6.08879C9.70879 6.13326 9.64123 6.26702 9.64042 6.28215ZM7.04863 6.00969C7.14129 6.16185 7.03778 5.99614 7.02421 6.01262C7.09665 6.10553 7.28041 6.35189 7.1707 6.17277C7.14852 6.13687 7.08227 6.05498 7.04863 6.00969ZM13.8934 5.99308C13.9777 5.88855 13.9826 6.01442 13.9002 6.09269C13.8897 6.10163 13.7794 6.13394 13.8934 5.99308ZM1.07695 5.88273C1.08219 5.89704 1.16777 6.05497 1.1746 6.04484C1.14856 5.98254 1.04143 5.78912 1.07695 5.88273ZM10.3426 4.75676C10.3047 4.80854 10.2086 5.00254 10.198 5.04875C10.1917 5.05488 10.1779 5.07384 10.1541 5.10832C10.1041 5.15019 9.33905 6.6886 9.87382 5.66398C9.89032 5.63336 9.85728 5.67069 9.92558 5.54289C9.93019 5.53435 9.94153 5.53418 9.95585 5.50773C9.98939 5.44347 10.1676 5.12672 10.198 5.05949C10.1999 5.05984 10.2036 5.05648 10.2098 5.04875C10.2648 4.97773 10.3726 4.71396 10.3426 4.75676ZM8.52128 5.91594C8.52961 5.92866 8.53829 5.94121 8.54667 5.95402C8.55268 5.94156 8.55919 5.92936 8.56523 5.91691C8.55506 5.90992 8.54029 5.89951 8.53203 5.8925C8.52841 5.90029 8.52488 5.90813 8.52128 5.91594ZM6.90703 5.86125C6.93885 5.89964 7.01118 5.95271 6.95097 5.87297C6.93386 5.86241 6.83643 5.77548 6.90703 5.86125ZM8.51054 5.89933C8.51363 5.89305 8.51722 5.88703 8.52031 5.88078C8.45142 5.79027 8.44877 5.74536 8.44316 5.73527C8.42133 5.70175 8.38993 5.67369 8.36894 5.6425C8.33434 5.59104 8.32197 5.55796 8.27714 5.49308C8.24584 5.44793 8.26234 5.50158 8.23222 5.45793C8.22128 5.44154 8.12889 5.2441 8.08476 5.25383C8.09332 5.2649 8.28992 5.56249 8.51054 5.89933ZM6.47246 5.31828C6.51238 5.35337 6.97736 5.94394 6.89238 5.80754C6.88111 5.78349 6.46924 5.26943 6.47246 5.31828ZM14.1639 5.59953C14.1745 5.62396 14.0932 5.73851 14.0584 5.78605C14.0442 5.77315 14.1369 5.65004 14.1639 5.59953ZM8.12675 5.36418C8.13863 5.38282 8.28425 5.58748 8.29472 5.58488C8.25653 5.52248 8.06097 5.25394 8.12675 5.36418ZM6.58281 5.48527C6.60855 5.52842 6.69737 5.60882 6.66093 5.54582C6.62171 5.49581 6.57726 5.47579 6.58281 5.48527ZM6.31718 5.00773C6.30544 4.99044 6.1074 4.79593 6.17363 4.88957C6.21952 4.95433 6.24311 4.95103 6.25566 4.96476C6.27157 4.98122 6.5442 5.32564 6.31718 5.00773ZM10.4012 4.79191C10.3981 4.81389 10.2399 5.06969 10.2273 5.07902C10.2833 4.97833 10.3435 4.87978 10.4012 4.79191ZM14.6189 4.80461C14.6169 4.81046 14.5627 4.90559 14.5584 4.91105C14.4856 4.98649 14.6528 4.68972 14.6189 4.80461ZM5.82597 4.63762C5.80446 4.6313 5.95039 4.77606 5.97831 4.78605C5.94099 4.7436 5.84468 4.64402 5.82597 4.63762ZM10.4568 4.58098C10.4491 4.59147 10.3483 4.74861 10.3719 4.73234C10.406 4.70789 10.4909 4.53757 10.4568 4.58098ZM0.386517 4.30949C0.373624 4.31799 0.452017 4.52509 0.451947 4.49601C0.450771 4.48531 0.395732 4.3025 0.386517 4.30949ZM10.6785 4.29094C10.6898 4.27777 10.7664 4.26273 10.6512 4.40226C10.6307 4.42742 10.6874 4.31391 10.5652 4.49504C10.6529 4.35805 10.6119 4.37119 10.6785 4.29094ZM5.37285 4.16008C5.40782 4.19646 5.73216 4.50692 5.63066 4.38469C5.61461 4.36326 5.26194 4.03319 5.37285 4.16008ZM9.84746 3.66008C9.88375 3.63399 9.70152 3.88727 9.69511 3.89641C9.63551 3.96846 9.78811 3.72482 9.84746 3.66008ZM15.1941 3.66008C15.2116 3.66539 15.1387 3.83963 15.1307 3.85051C15.089 3.9036 15.1476 3.71595 15.1941 3.66008ZM6.64238 3.43742C6.65895 3.43672 6.78747 3.58817 6.83671 3.63957C6.82026 3.63898 6.69319 3.48736 6.64238 3.43742ZM0.0564393 3.29191C0.0585453 3.15192 0.145255 3.83456 0.0798768 3.52043C0.0753561 3.50448 0.0552028 3.30456 0.0564393 3.29191ZM4.38945 3.40031C4.36089 3.34795 4.50958 3.44562 4.59746 3.52531C4.6175 3.54323 4.68012 3.62391 4.58671 3.56047C4.60844 3.53645 4.47659 3.42386 4.38945 3.40031ZM15.3328 3.23039C15.3065 3.32252 15.2775 3.4181 15.2449 3.51555C15.2367 3.44748 15.3131 3.31376 15.3328 3.23039ZM15.531 3.26555C15.4911 3.28217 15.4653 3.42923 15.4246 3.51066C15.4731 3.48524 15.502 3.34483 15.531 3.26555ZM11.3445 3.46184C11.4396 3.30491 11.4914 3.3076 11.4822 3.32023C11.3735 3.47872 11.4264 3.37024 11.4246 3.36809C11.414 3.37705 11.3362 3.4958 11.3445 3.46184ZM15.4744 3.27043C15.4713 3.27363 15.4085 3.45184 15.4217 3.46086C15.4546 3.38174 15.5175 3.23501 15.4744 3.27043ZM15.6121 3.19133C15.5813 3.20472 15.5332 3.36419 15.5105 3.43254C15.5521 3.41443 15.5801 3.26524 15.6121 3.19133ZM4.31523 3.27531C4.35634 3.28445 4.45741 3.35923 4.52421 3.4091C4.5028 3.40683 4.36515 3.30668 4.31523 3.27531ZM0.00565807 2.89934C0.0207667 2.81591 0.0132441 2.94084 0.0173768 3.08879C0.0196968 3.2198 0.0344443 3.37477 0.0398378 3.39348C0.0133449 3.43191 -0.011485 2.95928 0.00565807 2.89934ZM1.60624 3.10734C1.61701 3.1337 1.65763 3.34242 1.6541 3.37687C1.62918 3.30123 1.6154 3.18422 1.60624 3.10734ZM4.05644 3.15812C3.72922 2.98992 3.85099 2.94446 4.2498 3.23039C4.23496 3.22528 4.21969 3.2207 4.20488 3.21574C4.66729 3.54146 4.23456 3.23738 4.11406 3.1718C4.06886 3.14616 4.09825 3.18047 4.05742 3.15812H4.05644ZM15.2937 3.10637C15.2895 3.13163 15.2464 3.22956 15.2312 3.27531C15.2157 3.20914 15.3099 3.01511 15.2937 3.10637ZM15.3338 3.22746L15.3328 3.23039C15.3333 3.2285 15.3332 3.22642 15.3338 3.22453V3.22746ZM1.57792 2.92375C1.58679 2.93383 1.5956 3.08204 1.58867 3.10344C1.57613 3.05869 1.57782 2.97539 1.57792 2.92375ZM15.6297 2.86809C15.595 2.90477 15.5623 3.11984 15.5818 3.08879C15.5905 3.07516 15.6505 2.84643 15.6297 2.86809ZM11.6424 2.98918C11.6615 2.97375 11.618 3.03715 11.5906 3.06633C11.5418 3.1182 11.5805 3.03958 11.6424 2.98918ZM3.64726 2.91301C3.66685 2.92001 3.79541 2.99943 3.8455 3.02531C3.76724 3.00397 3.52244 2.86587 3.64726 2.91301ZM10.6961 2.69719C10.6845 2.70792 10.4873 2.93555 10.49 2.94621C10.519 2.91212 10.8085 2.57885 10.6961 2.69719ZM10.784 2.73234C10.7386 2.78609 10.6073 2.92926 10.6082 2.94426C10.6516 2.88853 10.7829 2.74764 10.784 2.73234ZM10.7801 2.56144C10.7776 2.56538 10.8325 2.52502 10.7381 2.62883C10.7303 2.63777 10.7016 2.64288 10.5906 2.78312C10.5681 2.81174 10.5408 2.86263 10.5437 2.86027C10.6803 2.73204 11.0219 2.28164 10.7801 2.56144ZM3.31425 2.76848C3.4094 2.8066 3.29523 2.79051 3.24882 2.76262C3.23156 2.75209 3.28997 2.75895 3.31425 2.76848ZM12.0975 2.63859C12.192 2.56275 11.8911 2.85877 11.9803 2.75383C11.9849 2.74791 12.0924 2.64213 12.0975 2.63859ZM2.81523 2.6132C2.51292 2.48512 3.10892 2.64819 3.28593 2.72355C3.10853 2.68416 2.89235 2.61581 3.18046 2.73625C2.74817 2.60532 2.93209 2.64368 2.91679 2.63371C2.8969 2.62593 2.82788 2.61859 2.81523 2.6132ZM5.66093 2.45305C5.72501 2.48274 5.86773 2.6153 5.95976 2.69816C5.90841 2.67174 5.74297 2.52037 5.66093 2.45305ZM3.09941 2.62297C3.14043 2.6306 3.22636 2.67674 3.19218 2.67473C3.14766 2.67158 3.08984 2.62173 3.09941 2.62297ZM12.6209 2.19035C12.6164 2.19318 12.6127 2.19587 12.6102 2.19719C12.5771 2.22981 12.1791 2.56512 12.158 2.58781C12.0319 2.67949 12.5626 2.20984 12.5877 2.205C12.5969 2.19943 12.6034 2.19585 12.6072 2.19426C12.6246 2.17395 12.7285 2.09364 12.7488 2.09367C12.7165 2.11621 12.6332 2.18195 12.6209 2.19035ZM2.48613 2.51945C2.38615 2.48422 2.80396 2.51086 2.8914 2.55559C2.87757 2.56099 2.49911 2.51649 2.48613 2.51945ZM5.58574 2.52726C5.60588 2.51821 5.33603 2.3176 5.43046 2.41203C5.45445 2.43534 5.57965 2.52991 5.58574 2.52726ZM12.2615 2.36613C12.2347 2.4081 12.2118 2.42936 12.1111 2.51945C12.2551 2.38026 12.1108 2.49696 12.2615 2.36613ZM11.7557 1.68254C11.713 1.69958 11.0849 2.29662 11.0144 2.39445C11.0923 2.3065 11.7182 1.72092 11.7537 1.70109C11.7612 1.69306 11.7599 1.6799 11.7557 1.68254ZM15.9187 2.11027C15.906 2.08618 15.8772 2.1814 15.9012 2.19816C15.9176 2.20586 15.928 2.12512 15.9187 2.11027ZM11.5301 2.06437C11.4661 2.10386 11.4309 2.18713 11.5174 2.10637C11.5432 2.08235 11.5369 2.06032 11.5301 2.06437ZM11.4627 1.82023C11.4112 1.88175 11.2467 2.03016 11.158 2.12199C11.1359 2.11957 11.3943 1.88256 11.4627 1.82023ZM17.8406 1.34758C17.7612 1.07524 17.3345 0.128746 17.8494 1.08879H17.8484C17.9431 1.3482 17.8572 1.19729 17.8621 1.20988C17.9912 1.74174 17.9796 1.58316 18.0096 1.66496C18.048 1.8297 17.9852 1.83189 18.0242 2.08098C17.9569 1.64854 18.0011 2.05061 17.9754 2.05754C17.8906 2.13016 17.9783 1.45644 17.8357 1.20109C17.8234 1.16877 17.8773 1.4312 17.8406 1.34758ZM18.0379 1.67473C18.0681 1.5975 18.1091 2.01049 18.0965 2.04582C18.0963 2.06788 18.0095 1.7734 18.0379 1.67473ZM4.93437 1.89445C4.94628 1.90114 5.08922 2.00048 5.09453 2.00578C5.20581 2.10281 4.78975 1.8145 4.93437 1.89445ZM13.1824 1.78605C13.1892 1.7846 13.0251 1.91215 12.9461 1.96086C12.7951 2.0493 13.1669 1.78791 13.1824 1.78605ZM12.1639 1.58488C12.105 1.6253 11.9359 1.75389 11.9139 1.78508C11.973 1.73288 12.1451 1.60993 12.1639 1.58488ZM12.8338 1.0175C12.6956 1.09394 12.5615 1.17662 12.4305 1.26359C12.5776 1.20879 12.3047 1.37258 12.201 1.41496C12.1689 1.44663 12.1373 1.47953 12.1062 1.51164C12.0216 1.52147 12.0405 1.59174 11.906 1.65324C11.7875 1.81069 12.3242 1.32942 12.4285 1.32512C11.7836 1.76339 12.8804 1.07334 12.3914 1.32316C12.7831 1.09847 12.5129 1.23566 12.5662 1.19133C12.6245 1.14293 12.8521 1.02417 12.8338 1.0175ZM4.06913 1.44328C4.05598 1.40912 4.34289 1.56998 4.43925 1.62297C4.45096 1.65477 4.1742 1.48634 4.06913 1.44328ZM12.7225 1.0048C12.6222 1.0846 12.5257 1.12397 12.3836 1.21769C12.3459 1.24286 12.3603 1.24332 12.3562 1.24601C12.2913 1.28984 12.3342 1.24916 12.2937 1.27629C12.259 1.29114 11.7652 1.68252 11.8279 1.61809C11.8625 1.55841 12.5887 1.06049 12.7225 1.0048ZM3.87285 1.47648C3.93882 1.51932 4.05129 1.53694 3.99296 1.49699C3.9283 1.46539 3.86591 1.47198 3.87285 1.47648ZM13.657 1.45598C13.6482 1.44014 13.9579 1.32758 14.035 1.30363C13.956 1.33951 13.7726 1.40685 13.657 1.45598ZM16.2635 1.1757C16.3056 1.23216 16.3463 1.29579 16.3748 1.35832C16.4508 1.35563 16.3654 1.29612 16.3445 1.26652C16.3261 1.23875 16.3298 1.19917 16.2635 1.1757ZM3.49199 1.20695C3.5144 1.20179 3.72626 1.28107 3.79765 1.30851C3.74539 1.30356 3.59644 1.24223 3.49199 1.20695ZM3.39042 1.29875C3.22843 1.22643 3.22727 1.26998 3.35038 1.30559C3.39233 1.31821 3.39495 1.30185 3.39042 1.29875ZM12.866 1.05949C12.8504 1.06421 12.5629 1.23885 12.5838 1.23625C12.6216 1.2118 13.0406 0.974875 12.866 1.05949ZM2.16777 1.10246C2.0402 1.10198 1.85778 1.11487 1.82206 1.1298C1.90143 1.11828 2.06739 1.11525 2.16777 1.11418C2.21627 1.11317 2.24642 1.11096 2.23613 1.10246C2.21806 1.10271 2.19435 1.10228 2.16777 1.10246ZM17.406 0.765546C17.2984 0.586215 17.5909 0.972946 17.6268 1.10832C17.617 1.10494 17.4232 0.775964 17.406 0.765546ZM2.16581 0.968671C2.74873 0.972424 2.96836 1.05942 2.94511 1.05461C2.91859 1.05997 2.64641 0.994473 2.16581 0.987226C2.06035 0.986639 1.94874 0.989901 1.83183 0.999921C1.82816 0.984554 1.82406 0.988516 1.92753 0.979413C2.01075 0.972603 2.09047 0.969455 2.16581 0.968671ZM15.0828 1.03508C15.1182 1.04214 14.9664 1.05179 14.9119 1.05168C14.7896 1.04893 15.0699 1.03035 15.0828 1.03508ZM13.1727 0.846601C13.1425 0.855918 12.8909 0.978997 12.8758 1.0009C12.9975 0.948646 13.2378 0.821736 13.1727 0.846601ZM14.1727 0.582929C13.9602 0.617728 13.6217 0.709506 13.4236 0.786054C13.3668 0.807158 13.3149 0.836513 13.2674 0.856366C13.1918 0.888162 13.2538 0.848752 13.2488 0.850507L13.1746 0.884687C13.1095 0.919266 13.0847 0.946939 13.242 0.876874C13.1696 0.913189 13.0982 0.950671 13.0281 0.990155C13.3032 0.871005 13.2726 0.854764 13.3523 0.82121C13.4654 0.777055 13.4673 0.807381 13.448 0.82414C13.5317 0.768473 13.9324 0.63134 14.1727 0.582929ZM15.7908 0.805585C15.9106 0.811376 16.1103 0.899167 16.2146 0.942304C16.225 0.947033 16.2084 0.83854 16.3162 0.963788C16.3859 1.03234 15.8874 0.843303 15.7908 0.805585ZM13.741 0.751874C13.3803 0.885394 13.5099 0.820021 13.4422 0.835859C13.301 0.875148 13.3696 0.907833 13.3875 0.903241C13.4588 0.88101 13.6916 0.771642 13.741 0.751874ZM17.9178 0.579999C17.9306 0.592328 18.0607 0.828981 18.0603 0.838788C18.1515 1.06316 17.7538 0.352202 17.9178 0.579999ZM14.3894 0.476484C14.1585 0.496843 13.9078 0.592453 13.8787 0.601484C13.8438 0.610242 13.8947 0.58105 13.8865 0.582929C13.8654 0.583723 13.4959 0.705143 13.4793 0.716718C13.4671 0.722245 13.5406 0.718212 13.4685 0.752851C13.6049 0.670641 14.2992 0.502001 14.3377 0.506757C14.366 0.501036 14.1481 0.510737 14.4861 0.472577L14.3894 0.476484ZM13.7693 0.572187C13.5941 0.614645 13.2353 0.777307 13.3758 0.69328C13.4471 0.651038 13.5037 0.647807 13.5135 0.644452C13.6089 0.610548 13.8098 0.546606 13.7693 0.572187ZM13.7889 0.622968C13.8845 0.603223 13.6254 0.683611 13.5623 0.704999C13.4224 0.746367 13.7705 0.624 13.7889 0.622968ZM14.0193 0.471601C14.184 0.438502 13.4563 0.639639 13.4168 0.66789C13.4592 0.634682 13.9947 0.466959 14.0193 0.471601ZM13.5174 0.59953C13.5454 0.594273 13.4998 0.622245 13.4217 0.652265C13.3909 0.657001 13.4516 0.612291 13.5174 0.59953ZM14.2771 0.541913C14.1547 0.563364 13.9674 0.603193 13.906 0.63371C14.0245 0.600052 14.2127 0.565402 14.2771 0.541913ZM14.0262 0.456952C14.0012 0.455712 13.4685 0.626718 13.5652 0.580976C13.6289 0.537988 14.164 0.411319 14.0262 0.456952ZM16.0437 0.493085C15.9415 0.444969 16.1808 0.504789 16.2478 0.546796C16.2422 0.559679 16.0622 0.49897 16.0437 0.493085ZM15.5564 0.365155C15.6873 0.405926 15.3487 0.391759 15.3084 0.356366C15.306 0.34798 15.5314 0.355653 15.5564 0.365155ZM15.5408 0.28703C15.645 0.315859 15.4093 0.300027 15.3348 0.288007C15.3311 0.270784 15.5245 0.281539 15.5408 0.28703ZM15.2322 0.00187415C15.5859 0.0694541 15.2829 0.0441163 16.0506 0.127851C15.7179 0.100492 16.0237 0.157487 15.9578 0.163007C15.9053 0.16575 15.7162 0.117774 15.8211 0.170819C15.6873 0.0966726 15.1314 0.0707965 15.0935 0.0721866H15.0945C15.0785 0.0682594 15.1206 -0.0132735 15.2322 0.00187415ZM15.5096 0.00773353C15.5171 -0.00403577 15.6406 0.00534337 15.7713 0.0292179C15.9262 0.0558689 16.0814 0.102987 16.1277 0.117109C16.098 0.119885 15.9342 0.082703 15.7713 0.0585148C15.6328 0.0369899 15.5036 0.0214921 15.5096 0.00773353Z" fill="#FF3C3C"/>
</svg>
